<?xml version="1.0" encoding="utf-8"?>
<!-- Generator: Adobe Illustrator 24.2.3, SVG Export Plug-In . SVG Version: 6.00 Build 0)  -->
<svg version="1.1" id="Layer_1" xmlns="http://www.w3.org/2000/svg" xmlns:xlink="http://www.w3.org/1999/xlink" x="0px" y="0px"
	 viewBox="0 0 199.018 284.512" enable-background="new 0 0 199.018 284.512" xml:space="preserve">
<g>
	<path fill-rule="evenodd" clip-rule="evenodd" fill="#FFFFFF" d="M24.801,276.723h149.417c9.535,0,17.36-7.826,17.36-17.36V100.206
		c0-50.622-41.446-92.068-92.069-92.068S7.44,49.584,7.44,100.206v159.156C7.44,268.897,15.266,276.723,24.801,276.723
		L24.801,276.723z"/>
	<path fill-rule="evenodd" clip-rule="evenodd" fill="#FFFFFF" d="M24.801,271.763h149.417c6.797,0,12.4-5.604,12.4-12.4V100.206
		c0-47.885-39.224-87.108-87.109-87.108S12.4,52.322,12.4,100.206v159.156C12.4,266.159,18.004,271.763,24.801,271.763
		L24.801,271.763z"/>
	<path fill="#ACB1AF" d="M24.801,270.669h149.417c3.096,0,5.924-1.278,7.976-3.331h0.004c2.049-2.049,3.327-4.876,3.327-7.976
		V100.206c0-23.641-9.685-45.147-25.277-60.737c-15.593-15.593-37.098-25.277-60.739-25.277s-45.145,9.683-60.739,25.277
		c-15.592,15.591-25.277,37.096-25.277,60.737v159.156c0,3.1,1.278,5.927,3.327,7.976l0.004,0.004
		C18.873,269.391,21.7,270.669,24.801,270.669L24.801,270.669z M174.218,272.856H24.801c-3.694,0-7.068-1.525-9.517-3.973
		l-0.001-0.002l-0.003-0.001c-2.448-2.447-3.973-5.823-3.973-9.517V100.206c0-24.242,9.93-46.295,25.919-62.283
		c15.989-15.989,38.041-25.919,62.284-25.919s46.295,9.93,62.284,25.919c15.989,15.988,25.919,38.04,25.919,62.283v159.156
		c0,3.695-1.526,7.07-3.976,9.518l0.003,0.002C181.291,271.331,177.915,272.856,174.218,272.856L174.218,272.856z"/>
	<path fill-rule="evenodd" clip-rule="evenodd" fill="#ACB1AF" d="M99.509,8.138c50.622,0,92.069,41.445,92.069,92.068v159.156
		c0,9.535-7.826,17.36-17.36,17.36H24.801c-9.535,0-17.36-7.826-17.36-17.36V100.206C7.44,49.584,48.887,8.138,99.509,8.138
		L99.509,8.138z M24.801,284.163h149.417c13.64,0,24.801-11.159,24.801-24.8V100.206c0-54.728-44.778-99.508-99.509-99.508
		S0,45.478,0,100.206v159.156C0,273.004,11.16,284.163,24.801,284.163L24.801,284.163z"/>
	<path fill-rule="evenodd" clip-rule="evenodd" fill="#010101" d="M95.1,94.809c-12.918,1.652-23.986,13.104-22.221,28.132
		c1.521,12.947,13.276,23.933,28.123,22.232c12.935-1.481,23.873-13.121,22.272-28.13C121.907,104.233,109.872,92.92,95.1,94.809
		L95.1,94.809z"/>
	<path fill-rule="evenodd" clip-rule="evenodd" fill="#004AD1" d="M25.401,108.722c0.001,8.939,1.604,18.638,4.934,25.768
		c1.895,0.047,12.588-4.492,15.148-5.475c2.646-1.015,13.712-4.951,14.892-5.979c-0.062-1.392-1.562-5.23-1.962-7.38
		c-1.035-5.575-0.658-11.419,1.066-16.808c0.548-1.712,2.682-6.047,2.694-7.043c-1.036-1.108-11.632-6.401-13.864-7.633
		c-2.255-1.244-12.891-7.339-14.569-7.297c-2.641,5.832-3.835,7.087-5.814,14.222C26.372,96.697,25.4,102.564,25.401,108.722
		L25.401,108.722z"/>
	<path fill-rule="evenodd" clip-rule="evenodd" fill="#980184" d="M45.203,76.607c0.956,1.01,17.888,10.645,20.582,12.171
		c1.56,0.884,5.624,3.713,7.416,3.682c2.395-6.051,10.483-12.568,16.777-15.292c2.03-0.879,7.061-1.926,8.259-2.609
		c0.159-2.028-1.619-9.841-2.094-12.412l-3.503-18.598c-0.731-1.228-4.452,0.169-5.921,0.541
		c-13.577,3.44-27.279,12.187-35.8,23.261C49.791,68.815,45.234,74.618,45.203,76.607L45.203,76.607z"/>
	<path fill-rule="evenodd" clip-rule="evenodd" fill="#0091FC" d="M24.042,143.032c0.167,3.058,5.532,11.304,7.053,13.406
		c5.884,8.138,12.757,14.465,21.492,19.513c2.057,1.189,12.146,6.315,14.631,5.761c0.78-1.395,1.896-5.573,2.423-7.33
		c1.272-4.236,7.008-21.386,6.902-23.296c-8.413-3.095-14.014-6.38-19.089-13.552c-1.608-2.273-2.463-4.469-3.844-6.987
		c-1.839-0.061-12.491,4.987-14.893,6.033L24.042,143.032L24.042,143.032z"/>
	<path fill-rule="evenodd" clip-rule="evenodd" fill="#FE7D02" d="M142.487,130.564c1.059,0.433,31.506,2.114,32.121,1.384
		c1.031-2.692-0.364-13.919-0.999-17.103c-1.988-9.971-5.787-18.392-11.458-26.374c-1.773-2.496-6.962-8.878-9.072-9.964
		c-1.337,0.448-8.837,8.763-10.616,10.714c-0.847,0.929-1.734,1.644-2.58,2.575l-5.297,5.599c-0.932,1.025-1.654,1.869-2.602,2.855
		c-2.159,2.248-0.545,1.596,2.812,5.824c1.561,1.966,2.859,4.039,4.09,6.516C142.887,120.64,141.706,123.712,142.487,130.564
		L142.487,130.564z"/>
	<path fill-rule="evenodd" clip-rule="evenodd" fill="#01AB02" d="M77.908,161.221c-0.72,1.288-8.527,29.558-8.44,30.864
		c2.842,1.974,15.02,2.913,19.382,2.913c7.271,0,15.031-1.461,21.283-3.625c3.813-1.32,15.034-6.275,16.387-8.672
		c-0.365-1.239-17.207-26.352-17.884-26.457c-0.955,0.229-4.58,2.568-6.23,3.309C89.998,165.13,82.35,161.206,77.908,161.221
		L77.908,161.221z"/>
	<path fill-rule="evenodd" clip-rule="evenodd" fill="#FE0000" d="M99.423,51.661c-0.231,1.39,3.89,29.478,4.514,31.621
		c5.015,0.418,8.622-1.558,17.47,1.483c3.718,1.278,6.631,2.826,9.611,5.015c4.059,2.981,1.927,3.522,8.446-3.853l10.416-11.944
		c1.077-1.35,4.55-4.898,4.997-6.266c-1.032-1.866-7.945-6.456-10.489-7.94c-8.346-4.87-17.762-8.065-27.72-8.985
		C113.334,50.485,101.804,50.091,99.423,51.661L99.423,51.661z"/>
	<path fill-rule="evenodd" clip-rule="evenodd" fill="#FFE500" d="M117.933,161.769c0.242,1.318,18.251,25.618,18.802,25.753
		c2.034-0.27,9.107-7.26,10.614-8.827c6.024-6.266,11.603-15.787,14.487-24.524c1.03-3.121,3.524-12.86,3.236-16.223
		c-0.139-1.621-1.674-1.272-3.385-1.388l-27.28-2.148c-4.056-0.096,0.859,4.764-7.114,17.34
		C122.925,158.641,119.828,159.311,117.933,161.769L117.933,161.769z"/>
	<path fill-rule="evenodd" clip-rule="evenodd" fill="#FFFFFF" d="M79.146,106.591l2.303-1.156c-0.725,2.993-1.53,3.963-1.266,7.588
		c1.534,1.359,4.417,1.911,6.108,3.126l-6.602-1.218c-2.142,2.496-2.439,3.607-3.569,7.157l-1.238-2.274
		c-0.315,4.985,1.96,11.262,4.485,13.869l-0.307-2.385c2.117,1.23,3.952,3.249,7.284,3.582l4.492-4.934l-3.245,5.988
		c1.063,2.112,3.503,4.529,5.619,5.428c-0.067,0.046-0.177,0.016-0.215,0.113c-0.039,0.097-0.164,0.086-0.219,0.107
		c-0.328,0.125-0.302,0.127-0.682,0.231c-0.431,0.118-0.815,0.146-1.364,0.31c7.009,1.506,7.504,1.421,14.535,0.086l-2.365-0.662
		c9.652-6.016,3.569-7.425,2.386-11.745c0.362,0.514,1.693,1.847,2.206,2.429c0.666,0.755,1.921,2.029,2.574,2.621
		c3.487-0.437,5.453-2.749,6.97-3.468l-0.28,2.438c2.505-3.768,4.733-7.757,4.575-13.712c-0.055,0.056-0.129,0.071-0.153,0.181
		l-0.528,0.74c-0.238,0.371-0.447,0.756-0.664,1.026c-1.604-5.591-1.488-3.652-3.298-7.053l-6.728,1.198l6.015-2.984
		c0.289-3.377-0.464-4.997-1.308-7.727l2.25,0.996c-1.149-2.781-7.445-7.711-11.833-8.641l1.751,1.892
		c-8.577,0.451-7.789,0.187-8.253,4.405c-0.138,1.248-0.282,2.405-0.405,3.662l-0.735-5.085c-0.033-0.306-0.069-0.718-0.139-0.99
		c0,0,0.204-2.386-7.952-1.909c0.497-1.045,1.013-1.229,1.768-1.976C86.583,98.655,80.558,103.783,79.146,106.591L79.146,106.591z
		 M87.912,116.421l3.83,12.284c13.639-0.119,12.312,1.157,13.478-2.455l3.047-9.708l-10.242-7.253
		c-1.37,0.707-3.603,2.557-5.012,3.594C91.911,113.695,89.023,115.957,87.912,116.421L87.912,116.421z"/>
	<path fill-rule="evenodd" clip-rule="evenodd" fill="#010101" d="M133.986,242.164c0.054,3.461-0.402,5.004-3.369,5.818
		c-3.866,1.06-5.034-0.362-6.498-1.854l-9.149-0.07c1.092,10.014,16.677,12.163,23.636,5.896c3.7-3.332,3.621-8.479,3.621-14.773
		c0-6.152,0-12.304,0-18.456l-7.893-0.017l-0.023,2.828c-1.42-1.186-2.89-2.567-5.459-3.116
		c-14.035-2.998-19.628,17.494-8.836,24.873C126.31,247.597,131.522,243.281,133.986,242.164L133.986,242.164z M158.459,226.156
		c-7.508,2.433-4.62,15.506,4.038,12.697C170.433,236.278,167.026,223.379,158.459,226.156L158.459,226.156z M126.135,225.627
		c-6.776,2.505-3.824,15.454,4.483,12.027C137.546,234.796,134.26,222.624,126.135,225.627L126.135,225.627z M58.153,226.186
		c-7.769,2.716-4.294,15.49,4.228,12.625C70.142,236.202,66.637,223.22,58.153,226.186L58.153,226.186z M166.548,243.526
		l0.088,2.437l8.186,0.037l0.078-27.291l-8.163,0.001l-0.01,2.587c-1.267-0.559-2.506-2.553-6.194-3.032
		c-7.794-1.013-14.642,5.302-14.779,14.041c-0.147,9.387,6.168,15.183,14.127,14.26C163.439,246.152,164.477,244.82,166.548,243.526
		L166.548,243.526z M66.334,243.622l0.024,2.268l8.15,0.115l0.098-27.291l-8.149,0.001l-0.029,2.608
		c-1.894-1.279-3.037-2.677-6.252-3.07c-7.76-0.949-14.434,5.465-14.687,13.756c-0.283,9.273,5.633,15.312,13.821,14.581
		C62.897,246.268,63.965,244.855,66.334,243.622L66.334,243.622z M79.444,245.955l19.449,0.042L99,238.245l-10.623-0.003
		l-0.078-26.273l-8.836-0.005L79.444,245.955L79.444,245.955z M33.123,211.964l-8.367,0.023l-0.069,33.928l19.263,0.002l0.001-7.477
		l-10.666-0.027L33.123,211.964L33.123,211.964z M102.657,245.961l1.102,0.042l6.022-0.007l1.048-0.018l0.066-27.22l-8.242-0.042
		L102.657,245.961L102.657,245.961z M105.642,206.898c-6.341,1.631-4.087,11.425,2.463,9.667
		C114.406,214.875,111.908,205.287,105.642,206.898L105.642,206.898z M33.123,211.964l0.162,26.449l10.666,0.027l-0.001,7.477
		l-19.263-0.002l0.069-33.928c-0.575,0.361-0.367,0.741-0.365,1.669c0.022,8.395-0.348,26.451,0.064,32.301
		c1.362,0.525,17.517,0.439,19.695,0.147c0.211-1.658,0.437-6.572-0.191-7.902l-10.469-0.047l-0.03-25.611
		C33.281,211.845,33.471,212.391,33.123,211.964L33.123,211.964z"/>
</g>
</svg>
